<?xml version="1.0" encoding="UTF-8" standalone="no"?>
<!-- Created with Inkscape (http://www.inkscape.org/) -->

<svg
   width="2000"
   height="1200"
   viewBox="0 0 529.16665 317.5"
   version="1.1"
   id="svg1"
   xml:space="preserve"
   inkscape:version="1.3 (0e150ed6c4, 2023-07-21)"
   sodipodi:docname="crown.svg"
   xmlns:inkscape="http://www.inkscape.org/namespaces/inkscape"
   xmlns:sodipodi="http://sodipodi.sourceforge.net/DTD/sodipodi-0.dtd"
   xmlns="http://www.w3.org/2000/svg"
   xmlns:svg="http://www.w3.org/2000/svg"><sodipodi:namedview
     id="namedview1"
     pagecolor="#ffffff"
     bordercolor="#666666"
     borderopacity="1.0"
     inkscape:showpageshadow="2"
     inkscape:pageopacity="0.0"
     inkscape:pagecheckerboard="0"
     inkscape:deskcolor="#d1d1d1"
     inkscape:document-units="mm"
     inkscape:zoom="0.25"
     inkscape:cx="1254"
     inkscape:cy="494"
     inkscape:window-width="1366"
     inkscape:window-height="705"
     inkscape:window-x="-8"
     inkscape:window-y="-8"
     inkscape:window-maximized="1"
     inkscape:current-layer="layer1" /><defs
     id="defs1" /><g
     inkscape:label="Layer 1"
     inkscape:groupmode="layer"
     id="layer1"><g
       id="g4"
       transform="matrix(3.8042093,0,0,3.8042093,-135.29322,-24.849931)"
       style="fill:#ffffff"><path
         id="path505"
         style="fill:#ffffff;fill-opacity:1;stroke-width:0.123898"
         d="m 105.07421,17.903817 -0.56483,0.462504 -0.56534,0.463021 v 1.268139 1.26814 l -1.40766,1.005107 c -1.45344,1.036468 -1.56528,1.183575 -1.56528,2.064473 0,0.241572 -0.0833,0.286825 -0.65061,0.355017 -0.357753,0.04302 -1.040726,0.07885 -1.517735,0.07958 -2.177477,0.0029 -8.803169,0.613423 -12.885002,1.186491 -2.042541,0.286859 -7.40634,1.21284 -7.882723,1.36064 -0.236304,0.07331 -1.316371,-1.004869 -2.456181,-2.45308 -1.100388,-1.398108 -1.34022,-1.3078 -2.106331,0.796334 -0.256045,0.703245 -0.666949,1.678113 -0.913639,2.166276 -0.387177,0.76617 -0.504364,0.899107 -0.855245,0.974617 -0.223573,0.04814 -1.250383,0.329538 -2.282548,0.624768 -9.423077,2.695408 -17.448253,6.457583 -22.581568,10.586434 l -1.235067,0.993738 -1.215946,-0.26355 c -1.98724,-0.429976 -3.765784,-1.201752 -5.191414,-2.252575 -1.069511,-0.788299 -1.242044,-0.86857 -1.536341,-0.711068 -0.135654,0.07258 -0.330165,0.293542 -0.432015,0.490409 l -0.185001,0.357601 0.908988,0.499194 c 11.771632,6.460538 26.905575,28.745436 29.565637,43.535844 l 0.196371,1.093474 c 0.108516,0.604212 0.392741,3.274218 0.392741,3.274218 2.001157,-1.742588 4.929931,-3.274218 4.929931,-3.274218 0.798206,-0.361571 2.57478,-1.183182 4.640544,-1.873271 7.217459,-2.411045 19.948463,-4.503944 27.381794,-4.501017 7.01713,0.0029 19.36337,1.95363 26.46401,4.18114 2.34353,0.735173 5.25264,2.033305 5.53197,2.193148 0,0 3.0161,1.531628 5.01726,3.274218 0,0 0.27854,-2.670005 0.38706,-3.274218 l 0.0692,-0.536402 c 0.14267,-1.09948 0.9136,-4.152075 1.50896,-5.977413 1.83253,-5.618548 5.51932,-12.904177 9.59321,-18.956465 6.06847,-9.015413 13.00198,-16.15475 18.67845,-19.235002 l 0.87488,-0.474906 -0.40825,-0.486792 c -0.48506,-0.577532 -0.54462,-0.56413 -1.84433,0.419612 -1.40255,1.061579 -3.17406,1.812671 -5.30355,2.248959 l -1.1374,0.23306 -0.94051,-0.783414 c -1.84809,-1.539265 -5.54621,-3.888126 -8.28787,-5.263245 -4.10584,-2.059458 -10.16061,-4.320782 -15.48277,-5.783626 l -1.76837,-0.486276 -0.54105,-1.115177 c -0.29795,-0.613292 -0.71811,-1.613912 -0.93276,-2.223637 -0.44859,-1.274045 -0.55167,-1.431437 -0.94206,-1.431437 -0.20801,0 -0.50169,0.275015 -1.09451,1.022677 -0.44563,0.562177 -1.10534,1.342921 -1.46606,1.734777 l -0.65577,0.712102 -1.48673,-0.302307 c -5.28563,-1.073212 -12.74322,-1.98147 -18.33739,-2.233973 -0.88588,-0.0401 -2.01485,-0.104501 -2.50889,-0.14211 l -0.89762,-0.06873 v -0.414962 c 0,-0.728356 -0.19266,-0.9693 -1.53014,-1.918229 l -1.30948,-0.929143 -0.0207,-1.145666 c -0.0117,-0.630326 -0.0274,-1.209701 -0.0362,-1.28726 -0.009,-0.07756 -0.27713,-0.362553 -0.59686,-0.633553 z m -0.0264,5.232239 c 0.0523,0 0.355,0.202485 0.67283,0.450101 0.39824,0.310262 0.57774,0.541577 0.57774,0.743624 0,0.28877 -0.0184,0.293005 -1.23868,0.293005 -1.20459,0 -1.23794,-0.008 -1.23094,-0.279052 0.007,-0.254976 0.96892,-1.207678 1.21905,-1.207678 z m -0.14366,4.741829 c 4.51161,-0.0063 9.03032,0.169336 13.41262,0.530717 4.0031,0.330106 11.02672,1.229391 11.02672,1.4118 0,0.132185 -2.32231,1.501769 -3.7021,2.183329 -4.78254,2.362348 -10.39519,3.781264 -16.86461,4.263823 -1.52209,0.11341 -5.66087,0.140658 -6.87658,0.04496 -7.381922,-0.581363 -12.771401,-1.948376 -17.772042,-4.507735 -1.587307,-0.812399 -3.483217,-1.994711 -3.290755,-2.052071 0.06815,-0.02034 1.071914,-0.176472 2.230355,-0.346749 6.817186,-1.001945 14.317052,-1.517514 21.836392,-1.528072 z M 73.660103,31.71486 c 0.01719,0.01755 1.008017,3.600576 2.201416,7.961788 1.193386,4.361212 2.681947,9.797068 3.308326,12.079883 0.626361,2.282813 2.01651,7.356483 3.0887,11.274764 l 1.949235,7.124113 -0.538468,0.08268 c -1.599133,0.245202 -7.275517,2.042623 -12.619902,3.996139 -1.22659,0.448343 -2.285673,0.814786 -2.353861,0.81442 -0.06815,-4.24e-4 -0.50681,-0.906427 -0.974618,-2.013314 -2.350583,-5.561795 -5.873509,-12.101346 -9.448002,-17.536914 -2.723622,-4.141693 -4.961753,-7.02927 -7.339087,-9.469189 -0.891362,-0.914835 -1.351916,-1.471884 -1.243335,-1.503784 0.09487,-0.02791 0.940443,-0.113933 1.878955,-0.191203 4.344017,-0.357807 8.53447,-1.418674 11.857674,-3.001884 3.853571,-1.835903 6.660555,-4.334811 9.272302,-8.254277 0.511183,-0.767123 0.943395,-1.380784 0.960665,-1.363224 z m 62.790487,0.03204 c 0.0208,-0.06812 0.35929,0.37502 0.7524,0.984436 3.90639,6.055373 8.78278,9.272894 16.51062,10.894943 1.62915,0.341957 5.18387,0.820105 6.09627,0.820105 0.32514,0 0.62815,0.03695 0.67335,0.08217 0.0453,0.04529 -0.49179,0.672896 -1.19321,1.39423 -5.65498,5.81556 -12.77087,17.306025 -17.05943,27.546639 -0.46545,1.111511 -0.72005,1.576663 -0.85834,1.567863 -0.10805,-0.0065 -0.83743,-0.258575 -1.62109,-0.560172 -4.06247,-1.563427 -12.58058,-4.259689 -13.45654,-4.259689 -0.16306,0 -0.29611,-0.06016 -0.29611,-0.133325 0,-0.136312 1.2771,-4.85735 3.71812,-13.743347 0.75814,-2.759825 1.53844,-5.603484 1.73374,-6.318994 1.34711,-4.935126 4.96932,-18.173735 5.00022,-18.274854 z m -58.11842,0.362769 c 0.01512,-0.01204 0.919389,0.393329 2.009696,0.90072 9.03463,4.204339 13.029995,5.354936 20.354314,5.861141 2.59056,0.179579 8.83374,0.181611 10.49652,0.0041 5.6057,-0.598353 10.18412,-2.028684 18.18958,-5.682857 1.35007,-0.61625 2.43631,-1.082426 2.41381,-1.035596 -0.0226,0.04675 -0.38252,0.782216 -0.79943,1.634009 -1.87651,3.833786 -3.6165,9.581264 -6.74636,22.283911 -2.17658,8.833564 -2.94206,11.915954 -3.0918,12.448853 l -0.13333,0.474906 -0.57981,-0.0739 c -0.88634,-0.113264 -6.05734,-0.528386 -9.31468,-0.747758 -1.60136,-0.10785 -3.42291,-0.250197 -4.04781,-0.316777 -1.44064,-0.153359 -2.60889,-0.153268 -4.04627,5.17e-4 -0.62489,0.06688 -2.44642,0.209512 -4.04781,0.316777 -1.601386,0.107279 -4.222047,0.302672 -5.823417,0.434082 v -10e-4 c -1.601387,0.131469 -3.166376,0.271809 -3.477824,0.311609 l -0.566374,0.07235 -0.278019,-1.030428 C 88.690263,67.397422 87.842717,63.978476 86.95955,60.366858 82.795834,43.339759 80.963173,37.204825 78.814827,33.104956 78.534317,32.569615 78.3171,32.121378 78.33217,32.109669 Z m 62.30834,0.0708 c 0.17312,0 3.86081,1.136755 5.3697,1.655196 3.70763,1.273915 7.52925,2.990274 10.09551,4.53409 1.29639,0.779883 3.76581,2.509914 3.9057,2.736267 0.16402,0.265396 -2.36191,-0.0359 -4.6886,-0.559139 -4.22074,-0.949194 -8.92422,-3.20398 -12.04061,-5.771741 -0.88165,-0.726441 -2.78379,-2.594673 -2.6417,-2.594673 z m -71.226142,0.05788 c 0.03561,-0.0051 0.05639,-0.0051 0.0615,0 0.08651,0.0865 -1.776897,1.876556 -2.798279,2.688208 -4.045652,3.214932 -9.360396,5.445632 -14.559835,6.111255 -1.475698,0.188922 -2.068608,0.228706 -2.068608,0.137976 0,-0.02722 0.487395,-0.412544 1.083655,-0.856278 3.150968,-2.344934 7.200358,-4.412812 12.049394,-6.153113 1.903389,-0.683125 5.698016,-1.851914 6.232178,-1.928048 z m 35.961112,38.743889 c 9.4473,0.02358 20.6774,1.736007 29.60543,4.549076 2.11777,0.667263 5.0227,1.707045 5.16816,1.850016 0.0695,0.06834 -1.42373,4.169174 -1.58027,4.339787 -0.0217,0.02371 -1.11646,-0.347374 -2.43292,-0.824239 -9.52605,-3.450591 -19.04611,-5.363962 -28.96981,-5.8229 -2.38838,-0.110469 -2.60495,-0.106672 -5.94744,0.106453 -9.388404,0.598631 -18.897859,2.612315 -27.54044,5.831169 -1.075717,0.400638 -1.99559,0.727853 -2.04432,0.727604 -0.04866,-2.78e-4 -0.459251,-0.977668 -0.912089,-2.171961 L 69.898576,77.3958 70.350228,77.206147 c 1.007773,-0.423583 5.291549,-1.83781 7.266223,-2.39882 5.299534,-1.505592 11.651065,-2.694269 17.53123,-3.28042 3.694269,-0.368239 5.043289,-0.452833 8.363309,-0.526583 0.61277,-0.01361 1.23467,-0.01966 1.86449,-0.01809 z" /><path
         style="fill:#ffffff;fill-opacity:1;stroke-width:0.123898"
         d="m 104.52133,10.643454 c -0.2755,-0.304423 -0.25836,-0.6606645 0.0476,-0.9890434 0.3145,-0.3375688 0.66387,-0.3458515 0.98636,-0.023414 0.29697,0.2969751 0.32134,0.7760664 0.0531,1.0442864 -0.2629,0.262893 -0.83547,0.246093 -1.08703,-0.0319 z"
         id="path671" /><path
         style="fill:#ffffff;fill-opacity:1;stroke-width:0.123898"
         d="m 100.29844,12.657702 c -0.44014,-0.440136 -0.10463,-1.168189 0.53834,-1.168189 0.36164,0 0.75373,0.32911 0.75373,0.632656 0,0.608613 -0.8618,0.965806 -1.29207,0.535533 z"
         id="path669" /><path
         style="fill:#ffffff;fill-opacity:1;stroke-width:0.123898"
         d="m 109.05437,12.839744 c -0.76043,-0.282663 -0.55656,-1.350231 0.25785,-1.350231 0.51032,0 0.70336,0.189681 0.70336,0.691059 0,0.556283 -0.43516,0.854707 -0.96121,0.659172 z"
         id="path667" /><path
         style="fill:#ffffff;fill-opacity:1;stroke-width:0.123898"
         d="m 104.81186,15.616068 c -0.77462,-0.276839 -0.55852,-1.400791 0.26933,-1.400791 0.65998,0 0.94314,0.775378 0.45071,1.234157 -0.27646,0.257553 -0.39128,0.284127 -0.72004,0.166634 z"
         id="path665" /><path
         style="fill:#ffffff;fill-opacity:1;stroke-width:0.123898"
         d="m 108.45397,17.496944 c -0.16327,-0.163267 -0.29686,-0.402249 -0.29686,-0.531069 0,-0.34351 0.39627,-0.644334 0.84874,-0.644334 0.30337,0 0.42898,0.07331 0.53897,0.31474 0.35693,0.783397 -0.49554,1.455974 -1.09085,0.860663 z"
         id="path663" /><path
         style="fill:#ffffff;fill-opacity:1;stroke-width:0.123898"
         d="m 100.80188,17.551528 c -0.38073,-0.299478 -0.42293,-0.732575 -0.1,-1.024926 0.46166,-0.41779 1.26304,-0.108143 1.2583,0.486144 -0.003,0.307921 -0.12029,0.477145 -0.45456,0.653129 -0.34666,0.182467 -0.32128,0.186593 -0.70386,-0.114289 z"
         id="path661" /></g></g></svg>
